# xmcd CD database file
#
# Track frame offsets:
#	150
#	16279
#	30315
#	48691
#	66072
#	86806
#	98974
#	112180
#	132239
#	152576
#	166058
#	186048
#	198764
#	213309
#	228516
#	242987
#	262790
#	278357
#
# Disc length: 3934 seconds
#
# Revision: 0
# Processed by: cddbd v1.5.2PL0 Copyright (c) Steve Scherf et al.
# Submitted via: CDex 1.51
#
DISCID=eb0f5c12
DTITLE=Carl Sonny Leyland Trio - Studio Session
DYEAR=1900
DGENRE=Blues
TTITLE0=Margie
TTITLE1=Cabbage Greens
TTITLE2=One Sweet Letter From You
TTITLE3=Memphis Blues
TTITLE4=B Flat Boogie
TTITLE5=Good Gravy Rag
TTITLE6=St. Louis Blues
TTITLE7=Body and Soul
TTITLE8=My Old Kentucky Home
TTITLE9=Argyle Avenue Breakdown
TTITLE10=Slow Blues
TTITLE11=Blame it on the Blues
TTITLE12=Kansas City Southern
TTITLE13=Two Key Boogie
TTITLE14=Swipesy Cakewalk
TTITLE15=Come Day and Go Day
TTITLE16=Pancake Charlie
TTITLE17=Final Cut Boogie
EXTD=
EXTT0=
EXTT1=
EXTT2=
EXTT3=
EXTT4=
EXTT5=
EXTT6=
EXTT7=
EXTT8=
EXTT9=
EXTT10=
EXTT11=
EXTT12=
EXTT13=
EXTT14=
EXTT15=
EXTT16=
EXTT17=
PLAYORDER=
